<?xml version="1.0" encoding="UTF-8" standalone="no"?>
<svg
   xmlns:dc="http://purl.org/dc/elements/1.1/"
   xmlns:cc="http://creativecommons.org/ns#"
   xmlns:rdf="http://www.w3.org/1999/02/22-rdf-syntax-ns#"
   xmlns:svg="http://www.w3.org/2000/svg"
   xmlns="http://www.w3.org/2000/svg"
   xmlns:sodipodi="http://sodipodi.sourceforge.net/DTD/sodipodi-0.dtd"
   xmlns:inkscape="http://www.inkscape.org/namespaces/inkscape"
   inkscape:version="1.0beta2 (2b71d25, 2019-12-03)"
   sodipodi:docname="apple.svg"
   id="svg837"
   preserveAspectRatio="xMidYMid"
   version="1.1"
   viewBox="0 0 256 315"
   height="315px"
   width="256px">
  <metadata
     id="metadata843">
    <rdf:RDF>
      <cc:Work
         rdf:about="">
        <dc:format>image/svg+xml</dc:format>
        <dc:type
           rdf:resource="http://purl.org/dc/dcmitype/StillImage" />
      </cc:Work>
    </rdf:RDF>
  </metadata>
  <defs
     id="defs841" />
  <sodipodi:namedview
     inkscape:current-layer="svg837"
     inkscape:window-maximized="0"
     inkscape:window-y="23"
     inkscape:window-x="0"
     inkscape:cy="114.48162"
     inkscape:cx="131.09128"
     inkscape:zoom="1.4728638"
     showgrid="false"
     id="namedview839"
     inkscape:window-height="771"
     inkscape:window-width="1413"
     inkscape:pageshadow="2"
     inkscape:pageopacity="0"
     guidetolerance="10"
     gridtolerance="10"
     objecttolerance="10"
     borderopacity="1"
     inkscape:document-rotation="0"
     bordercolor="#666666"
     pagecolor="#ffffff" />
  <g
     inkscape:export-ydpi="300.75003"
     inkscape:export-xdpi="300.75003"
     inkscape:export-filename="/Users/morgan/Desktop/g835.png"
     style="fill:#ffffff;fill-opacity:1"
     id="g835">
    <path
       style="fill:#ffffff;fill-opacity:1"
       id="path833"
       fill="#000000"
       d="M213.803394,167.030943 C214.2452,214.609646 255.542482,230.442639 256,230.644727 C255.650812,231.761357 249.401383,253.208293 234.24263,275.361446 C221.138555,294.513969 207.538253,313.596333 186.113759,313.991545 C165.062051,314.379442 158.292752,301.507828 134.22469,301.507828 C110.163898,301.507828 102.642899,313.596301 82.7151126,314.379442 C62.0350407,315.16201 46.2873831,293.668525 33.0744079,274.586162 C6.07529317,235.552544 -14.5576169,164.286328 13.147166,116.18047 C26.9103111,92.2909053 51.5060917,77.1630356 78.2026125,76.7751096 C98.5099145,76.3877456 117.677594,90.4371851 130.091705,90.4371851 C142.497945,90.4371851 165.790755,73.5415029 190.277627,76.0228474 C200.528668,76.4495055 229.303509,80.1636878 247.780625,107.209389 C246.291825,108.132333 213.44635,127.253405 213.803394,167.030988 M174.239142,50.1987033 C185.218331,36.9088319 192.607958,18.4081019 190.591988,0 C174.766312,0.636050225 155.629514,10.5457909 144.278109,23.8283506 C134.10507,35.5906758 125.195775,54.4170275 127.599657,72.4607932 C145.239231,73.8255433 163.259413,63.4970262 174.239142,50.1987249" />
  </g>
</svg>
