<?xml version="1.0" encoding="UTF-8" standalone="no"?>
<svg
   xmlns:dc="http://purl.org/dc/elements/1.1/"
   xmlns:cc="http://creativecommons.org/ns#"
   xmlns:rdf="http://www.w3.org/1999/02/22-rdf-syntax-ns#"
   xmlns:svg="http://www.w3.org/2000/svg"
   xmlns="http://www.w3.org/2000/svg"
   xmlns:sodipodi="http://sodipodi.sourceforge.net/DTD/sodipodi-0.dtd"
   xmlns:inkscape="http://www.inkscape.org/namespaces/inkscape"
   width="263.70718"
   height="166.63144"
   viewBox="0 0 263.70719 166.63144"
   version="1.1"
   preserveAspectRatio="xMidYMid"
   id="svg843"
   sodipodi:docname="cb.svg"
   inkscape:export-filename="/Users/morgan/Documents/CODING/WORKSPACE/JAVA/OC-Java-Project-6-PayMyBuddy/src/main/resources/static/assets/icons/mastercard_simply.png"
   inkscape:export-xdpi="300"
   inkscape:export-ydpi="300"
   inkscape:version="1.0beta2 (2b71d25, 2019-12-03)">
  <metadata
     id="metadata849">
    <rdf:RDF>
      <cc:Work
         rdf:about="">
        <dc:format>image/svg+xml</dc:format>
        <dc:type
           rdf:resource="http://purl.org/dc/dcmitype/StillImage" />
        <dc:title></dc:title>
      </cc:Work>
    </rdf:RDF>
  </metadata>
  <defs
     id="defs847" />
  <sodipodi:namedview
     pagecolor="#ffffff"
     bordercolor="#666666"
     inkscape:document-rotation="0"
     borderopacity="1"
     objecttolerance="10"
     gridtolerance="10"
     guidetolerance="10"
     inkscape:pageopacity="0"
     inkscape:pageshadow="2"
     inkscape:window-width="1680"
     inkscape:window-height="945"
     id="namedview845"
     showgrid="false"
     fit-margin-top="0"
     fit-margin-left="0"
     fit-margin-right="0"
     fit-margin-bottom="0"
     inkscape:zoom="3.2610528"
     inkscape:cx="145.06951"
     inkscape:cy="92.94808"
     inkscape:window-x="0"
     inkscape:window-y="23"
     inkscape:window-maximized="0"
     inkscape:current-layer="g841" />
  <g
     id="g841"
     transform="translate(4.0049379,4.0049591)">
    <g
       id="g857">
      <rect
         style="fill:none;stroke:#000000;stroke-width:10;stroke-miterlimit:4;stroke-dasharray:none;stroke-opacity:1"
         id="rect841"
         width="253.70718"
         height="156.63144"
         x="0.99506211"
         y="0.99504089"
         ry="20.238863" />
      <g
         aria-label="CB"
         id="text846"
         style="font-style:normal;font-weight:normal;font-size:40px;line-height:1.25;font-family:sans-serif;fill:#000000;fill-opacity:1;stroke:none">
        <path
           inkscape:connector-curvature="0"
           d="m 87.211081,115.66022 c 13.013379,0 23.786739,-4.69335 30.826759,-13.33337 L 106.94448,92.086816 c -5.01335,5.866685 -11.306706,8.853364 -18.773396,8.853364 -13.973377,0 -23.893408,-9.813367 -23.893408,-23.893411 0,-14.080044 9.920031,-23.893408 23.893408,-23.893408 7.46669,0 13.760046,2.986676 18.773396,8.746694 l 11.09336,-10.240032 c -7.04002,-8.53336 -17.81338,-13.226708 -30.720092,-13.226708 -23.253406,0 -40.53346,16.106717 -40.53346,38.613454 0,22.506737 17.280054,38.613451 40.426793,38.613451 z"
           style="font-style:normal;font-variant:normal;font-weight:bold;font-stretch:normal;font-size:106.667px;font-family:Montserrat;-inkscape-font-specification:'Montserrat Bold';letter-spacing:10px"
           id="path848" />
        <path
           inkscape:connector-curvature="0"
           d="m 194.42972,75.553431 c 6.08002,-3.20001 9.92003,-8.960028 9.92003,-16.426718 0,-11.626703 -9.60003,-19.413394 -28.26676,-19.413394 h -36.48011 v 74.666901 h 38.61345 c 19.62673,0 29.86676,-7.46669 29.86676,-20.373398 0,-9.386696 -5.33335,-15.786716 -13.65337,-18.453391 z M 173.94965,52.726693 c 8.4267,0 13.01338,2.880009 13.01338,8.746694 0,5.866685 -4.58668,8.853361 -13.01338,8.853361 H 156.77627 V 52.726693 Z m 2.98668,48.640147 H 156.77627 V 82.913454 h 20.16006 c 8.96003,0 13.76004,2.986676 13.76004,9.280029 0,6.40002 -4.80001,9.173357 -13.76004,9.173357 z"
           style="font-style:normal;font-variant:normal;font-weight:bold;font-stretch:normal;font-size:106.667px;font-family:Montserrat;-inkscape-font-specification:'Montserrat Bold';letter-spacing:10px"
           id="path850" />
      </g>
    </g>
  </g>
</svg>
