<?xml version="1.0" encoding="UTF-8" standalone="no"?>
<svg
   xmlns:dc="http://purl.org/dc/elements/1.1/"
   xmlns:cc="http://creativecommons.org/ns#"
   xmlns:rdf="http://www.w3.org/1999/02/22-rdf-syntax-ns#"
   xmlns:svg="http://www.w3.org/2000/svg"
   xmlns="http://www.w3.org/2000/svg"
   xmlns:sodipodi="http://sodipodi.sourceforge.net/DTD/sodipodi-0.dtd"
   xmlns:inkscape="http://www.inkscape.org/namespaces/inkscape"
   width="25"
   height="50"
   version="1.1"
   style="clip-rule:evenodd;fill-rule:evenodd;image-rendering:optimizeQuality;shape-rendering:geometricPrecision;text-rendering:geometricPrecision"
   viewBox="0 0 661.45832 1322.9167"
   id="svg13"
   sodipodi:docname="logo_facebook.svg"
   inkscape:version="0.92.2 5c3e80d, 2017-08-06">
  <metadata
     id="metadata17">
    <rdf:RDF>
      <cc:Work
         rdf:about="">
        <dc:format>image/svg+xml</dc:format>
        <dc:type
           rdf:resource="http://purl.org/dc/dcmitype/StillImage" />
        <dc:title></dc:title>
      </cc:Work>
    </rdf:RDF>
  </metadata>
  <sodipodi:namedview
     pagecolor="#000000"
     bordercolor="#666666"
     borderopacity="1"
     objecttolerance="10"
     gridtolerance="10"
     guidetolerance="10"
     inkscape:pageopacity="0"
     inkscape:pageshadow="2"
     inkscape:window-width="3840"
     inkscape:window-height="2065"
     id="namedview15"
     showgrid="false"
     fit-margin-top="0"
     fit-margin-left="0"
     fit-margin-right="0"
     fit-margin-bottom="0"
     inkscape:zoom="10.925926"
     inkscape:cx="-5.2557844"
     inkscape:cy="25.097351"
     inkscape:window-x="0"
     inkscape:window-y="0"
     inkscape:window-maximized="1"
     inkscape:current-layer="svg13"
     units="px" />
  <defs
     id="defs4">
    <style
       type="text/css"
       id="style2">  .fil0 {fill:#F0F0F0} .fil1 {fill:#011627;fill-rule:nonzero}  </style>
  </defs>
  <polygon
     class="fil0"
     points="0,9144 0,0 9144,0 9144,9144 "
     id="polygon7"
     style="fill:none"
     transform="translate(-3539,-5366.0833)" />
  <path
     class="fil1"
     d="m 27.21392,465.55169 h 146.31484 c 0,-103.42122 0.64033,-182.78369 7.0436,-244.9614 7.36377,-71.23878 22.73163,-119.66865 54.10769,-153.413338 C 266.69641,32.494914 312.47983,15.62254 380.35455,7.4988191 443.10665,0 525.06857,0 634.24442,0 c 15.0477,0 27.21391,11.87313 27.21391,26.558318 V 238.08754 c 0,14.68519 -12.16621,26.55832 -27.21391,26.55832 -49.94555,0 -88.3652,0 -116.21944,3.1245 -23.0518,2.49961 -38.73983,6.87392 -48.34474,14.99764 l -0.96049,0.93735 c -11.20573,9.99843 -16.96868,28.12058 -20.17032,58.11582 -3.5218,29.68283 -3.84196,70.30143 -3.84196,123.73052 h 189.53695 c 15.0477,0 27.21391,11.87313 27.21391,26.55831 v 211.84165 c 0,14.37273 -12.16621,26.24586 -27.21391,26.24586 H 444.70747 v 566.16089 h -0.32017 c 0,14.6852 -12.16622,26.5583 -26.89375,26.5583 l -216.75087,-0.3125 c -14.72753,0 -26.89376,-11.5606 -26.89376,-26.2458 L 173.52876,730.19751 H 27.21392 C 12.166223,730.19751 0,718.32438 0,703.95165 V 492.11 c 0,-14.68518 12.166223,-26.55831 27.21392,-26.55831 z"
     id="path9"
     inkscape:connector-curvature="0"
     style="fill:#ffffff;fill-opacity:1;fill-rule:nonzero;stroke:none;stroke-width:0.31628379;stroke-opacity:1"
     sodipodi:nodetypes="sccccsssscccccsssscccccccssss" />
</svg>
