<?xml version="1.0" encoding="UTF-8" standalone="no"?>
<svg
   xmlns:dc="http://purl.org/dc/elements/1.1/"
   xmlns:cc="http://creativecommons.org/ns#"
   xmlns:rdf="http://www.w3.org/1999/02/22-rdf-syntax-ns#"
   xmlns:svg="http://www.w3.org/2000/svg"
   xmlns="http://www.w3.org/2000/svg"
   xmlns:sodipodi="http://sodipodi.sourceforge.net/DTD/sodipodi-0.dtd"
   xmlns:inkscape="http://www.inkscape.org/namespaces/inkscape"
   inkscape:version="1.0beta2 (2b71d25, 2019-12-03)"
   sodipodi:docname="google.svg"
   id="svg898"
   xml:space="preserve"
   viewBox="0 0 465.18837 474.69479"
   version="1.1"
   height="474.69479"
   width="465.18839"><sodipodi:namedview
     inkscape:current-layer="svg898"
     inkscape:window-maximized="0"
     inkscape:window-y="417"
     inkscape:window-x="2191"
     inkscape:cy="315.64422"
     inkscape:cx="232.60001"
     inkscape:zoom="1.6806057"
     fit-margin-bottom="0"
     fit-margin-right="0"
     fit-margin-left="0"
     fit-margin-top="0"
     showgrid="false"
     id="namedview900"
     inkscape:window-height="1456"
     inkscape:window-width="2121"
     inkscape:pageshadow="2"
     inkscape:pageopacity="0"
     guidetolerance="10"
     gridtolerance="10"
     objecttolerance="10"
     borderopacity="1"
     inkscape:document-rotation="0"
     bordercolor="#666666"
     pagecolor="#ffffff" /><metadata
     id="metadata833"><rdf:RDF><cc:Work
         rdf:about=""><dc:format>image/svg+xml</dc:format><dc:type
           rdf:resource="http://purl.org/dc/dcmitype/StillImage" /><dc:title></dc:title></cc:Work></rdf:RDF></metadata><defs
     id="defs850"><clipPath
       id="clipPath875"><path
         inkscape:connector-curvature="0"
         id="path835"
         d="M 0,0 H 3489 V 4735 H 0 Z" /></clipPath><clipPath
       id="clipPath881"><path
         inkscape:connector-curvature="0"
         id="path838"
         clip-rule="evenodd"
         d="m 3489,2914.3 c 0,126.22 -11.32,247.6 -32.37,364.11 h -1676.5 v -688.58 h 958.03 c -41.27,-222.51 -166.69,-411.05 -355.21,-537.27 v -446.65 h 575.29 c 336.61,309.91 530.8,766.26 530.8,1308.4 z" /></clipPath><clipPath
       id="clipPath891"><path
         inkscape:connector-curvature="0"
         id="path841"
         clip-rule="evenodd"
         d="m 1780.1,1174.6 c 480.63,0 883.59,159.4 1178.1,431.27 l -575.29,446.65 C 2223.5,1945.71 2019.6,1882.6 1780.09,1882.6 c -463.64,0 -856.08,313.14 -996.05,733.9 H 189.32 v -461.22 c 292.91,-581.78 894.9,-980.68 1590.8,-980.68 z" /></clipPath><clipPath
       id="clipPath901"><path
         inkscape:connector-curvature="0"
         id="path844"
         clip-rule="evenodd"
         d="m 784.06,2616.5 c -35.61,106.8 -55.836,220.89 -55.836,338.22 0,117.32 20.226,231.41 55.836,338.22 v 461.2 H 189.34 C 68.77,3513.83 0,3241.96 0,2954.72 0,2667.47 68.773,2395.59 189.34,2155.28 Z" /></clipPath><clipPath
       id="clipPath911"><path
         inkscape:connector-curvature="0"
         id="path847"
         clip-rule="evenodd"
         d="m 1780.1,4026.9 c 261.35,0 496.01,-89.82 680.49,-266.21 l 510.57,510.57 c -308.29,287.24 -711.24,463.64 -1191.1,463.64 -695.87,0 -1297.9,-398.91 -1590.8,-980.69 l 594.72,-461.2 c 139.98,420.75 532.41,733.89 996.05,733.89 z" /></clipPath></defs><g
     transform="translate(0,-0.015783)"
     id="g954"><g
       clip-path="url(#clipPath875)"
       id="g880"
       transform="matrix(0.13333,0,0,-0.13333,0,631.32)"><g
         clip-path="url(#clipPath881)"
         id="g878"><path
           d="m 791.16,4267.4 h 3686.8 V 617 H 791.16 v 3650.4"
           style="fill:#5575c3"
           id="path876"
           inkscape:connector-curvature="0" /></g></g><g
       clip-path="url(#clipPath891)"
       id="g884"
       transform="matrix(0.13333,0,0,-0.13333,0,631.32)"><path
         d="m -799.61,3605.5 h 4746.8 V 185.7 h -4746.8 v 3419.8"
         style="fill:#3bac49"
         id="path882"
         inkscape:connector-curvature="0" /></g><g
       clip-path="url(#clipPath901)"
       id="g888"
       transform="matrix(0.13333,0,0,-0.13333,0,631.32)"><path
         d="m -988.95,4743.1 h 2762 V 1166.3 h -2762 v 3576.8"
         style="fill:#f5b60b"
         id="path886"
         inkscape:connector-curvature="0" /></g><g
       clip-path="url(#clipPath911)"
       id="g892"
       transform="matrix(0.13333,0,0,-0.13333,0,631.32)"><path
         d="m -799.61,5723.8 h 4759.7 V 2304 h -4759.7 v 3419.8"
         style="fill:#e8302f"
         id="path890"
         inkscape:connector-curvature="0" /></g></g></svg>
