<?xml version="1.0" encoding="UTF-8" standalone="no"?>
<svg
   xmlns:dc="http://purl.org/dc/elements/1.1/"
   xmlns:cc="http://creativecommons.org/ns#"
   xmlns:rdf="http://www.w3.org/1999/02/22-rdf-syntax-ns#"
   xmlns:svg="http://www.w3.org/2000/svg"
   xmlns="http://www.w3.org/2000/svg"
   xmlns:sodipodi="http://sodipodi.sourceforge.net/DTD/sodipodi-0.dtd"
   xmlns:inkscape="http://www.inkscape.org/namespaces/inkscape"
   inkscape:version="1.0beta2 (2b71d25, 2019-12-03)"
   sodipodi:docname="mastercard_lib.svg"
   id="svg843"
   preserveAspectRatio="xMidYMid"
   version="1.1"
   viewBox="0 0 559.38635 158.05783"
   height="158.05783"
   width="559.38635">
  <metadata
     id="metadata849">
    <rdf:RDF>
      <cc:Work
         rdf:about="">
        <dc:format>image/svg+xml</dc:format>
        <dc:type
           rdf:resource="http://purl.org/dc/dcmitype/StillImage" />
        <dc:title></dc:title>
      </cc:Work>
    </rdf:RDF>
  </metadata>
  <defs
     id="defs847" />
  <sodipodi:namedview
     inkscape:current-layer="svg843"
     inkscape:window-maximized="1"
     inkscape:window-y="23"
     inkscape:window-x="0"
     inkscape:cy="190.0687"
     inkscape:cx="337.37486"
     inkscape:zoom="1.3496303"
     fit-margin-bottom="0"
     fit-margin-right="0"
     fit-margin-left="0"
     fit-margin-top="0"
     showgrid="false"
     id="namedview845"
     inkscape:window-height="956"
     inkscape:window-width="1680"
     inkscape:pageshadow="2"
     inkscape:pageopacity="0"
     guidetolerance="10"
     gridtolerance="10"
     objecttolerance="10"
     borderopacity="1"
     inkscape:document-rotation="0"
     bordercolor="#666666"
     pagecolor="#ffffff" />
  <path
     style="fill:#ffffff;fill-opacity:1;stroke-width:1.15127"
     d="M 328.33132,97.866977 V 82.795383 c 0,-5.777446 -3.55995,-9.545355 -9.66273,-9.545355 -3.05139,0 -6.35706,1.004775 -8.64561,4.270296 -1.77997,-2.763134 -4.3228,-4.270296 -8.13703,-4.270296 -2.54283,0 -5.08564,0.753587 -7.11991,3.51671 v -3.014322 h -5.33993 v 24.114561 h 5.33993 V 84.553732 c 0,-4.270284 2.28854,-6.279833 5.8485,-6.279833 3.55995,0 5.33993,2.260737 5.33993,6.279833 v 13.313245 h 5.33993 V 84.553732 c 0,-4.270284 2.54282,-6.279833 5.8485,-6.279833 3.55994,0 5.33993,2.260737 5.33993,6.279833 v 13.313245 z m 79.08181,-24.114561 h -8.64559 v -7.284597 h -5.33993 v 7.284597 h -4.83138 v 4.772671 h 4.83138 v 11.052505 c 0,5.526262 2.28854,8.79177 8.39132,8.79177 2.28854,0 4.83136,-0.753573 6.61134,-1.758352 l -1.5257,-4.521486 c -1.52569,1.00478 -3.30567,1.255978 -4.57707,1.255978 -2.54283,0 -3.55996,-1.507165 -3.55996,-4.019098 V 78.525087 h 8.64559 z m 45.26227,-0.502388 c -3.05139,0 -5.08565,1.507162 -6.35706,3.51671 v -3.014322 h -5.33993 v 24.114561 h 5.33993 V 84.302533 c 0,-4.019085 1.77997,-6.279822 5.08564,-6.279822 1.01714,0 2.28855,0.251188 3.30568,0.502376 l 1.52569,-5.02386 c -1.01712,-0.251199 -2.54282,-0.251199 -3.55995,-0.251199 z m -68.40197,2.511936 c -2.54281,-1.758349 -6.10277,-2.511936 -9.917,-2.511936 -6.10279,0 -10.17129,3.014323 -10.17129,7.786995 0,4.019096 3.05137,6.279833 8.3913,7.033419 l 2.54283,0.251188 c 2.7971,0.502387 4.3228,1.255962 4.3228,2.511937 0,1.758352 -2.03426,3.01432 -5.59421,3.01432 -3.55996,0 -6.35706,-1.255968 -8.13704,-2.511933 l -2.54282,4.019088 c 2.7971,2.00955 6.61134,3.01432 10.42557,3.01432 7.11992,0 11.18843,-3.265508 11.18843,-7.786994 0,-4.270286 -3.30567,-6.531023 -8.39131,-7.284598 l -2.54283,-0.251199 c -2.28853,-0.251188 -4.06852,-0.753575 -4.06852,-2.260736 0,-1.75836 1.77999,-2.763124 4.57709,-2.763124 3.05138,0 6.10277,1.255962 7.62847,2.009538 z M 526.163,73.250028 c -3.05139,0 -5.08564,1.507162 -6.35706,3.51671 v -3.014322 h -5.33992 v 24.114561 h 5.33992 V 84.302533 c 0,-4.019085 1.77998,-6.279822 5.08566,-6.279822 1.01712,0 2.28853,0.251188 3.30566,0.502376 l 1.5257,-5.02386 c -1.01713,-0.251199 -2.54283,-0.251199 -3.55996,-0.251199 z m -68.14767,12.559667 c 0,7.284609 5.08565,12.559667 12.9684,12.559667 3.55995,0 6.10277,-0.753573 8.6456,-2.763123 l -2.54283,-4.270285 c -2.03424,1.507162 -4.06851,2.260735 -6.35706,2.260735 -4.3228,0 -7.37418,-3.014321 -7.37418,-7.786994 0,-4.521473 3.05138,-7.535796 7.37418,-7.786984 2.28855,0 4.32282,0.753575 6.35706,2.260737 l 2.54283,-4.270285 c -2.54283,-2.009548 -5.08565,-2.763135 -8.6456,-2.763135 -7.88275,0 -12.9684,5.275059 -12.9684,12.559667 z m 49.33078,0 V 73.752416 h -5.33993 v 3.014322 c -1.77998,-2.260736 -4.3228,-3.51671 -7.62847,-3.51671 -6.86563,0 -12.20556,5.275059 -12.20556,12.559667 0,7.284609 5.33993,12.559667 12.20556,12.559667 3.55994,0 6.10277,-1.255958 7.62847,-3.516705 v 3.01432 h 5.33993 z m -19.57975,0 c 0,-4.270285 2.79711,-7.786984 7.37419,-7.786984 4.3228,0 7.37419,3.265511 7.37419,7.786984 0,4.270284 -3.05139,7.786994 -7.37419,7.786994 -4.57708,-0.251187 -7.37419,-3.51671 -7.37419,-7.786994 z M 423.94149,73.250028 c -7.1199,0 -12.20555,5.023871 -12.20555,12.559667 0,7.535807 5.08565,12.559667 12.45983,12.559667 3.55995,0 7.11992,-1.00477 9.91702,-3.265508 l -2.54283,-3.7679 c -2.03426,1.507162 -4.57708,2.511933 -7.1199,2.511933 -3.30567,0 -6.61134,-1.507156 -7.3742,-5.777445 h 18.05406 v -2.009548 c 0.25427,-7.786995 -4.32281,-12.810866 -11.18843,-12.810866 z m 0,4.521484 c 3.30567,0 5.59421,2.009549 6.10277,5.777446 h -12.71411 c 0.50857,-3.26551 2.7971,-5.777446 6.61134,-5.777446 z m 132.48112,8.038183 V 64.207071 h -5.33993 v 12.559667 c -1.77999,-2.260736 -4.3228,-3.51671 -7.62847,-3.51671 -6.86563,0 -12.20556,5.275059 -12.20556,12.559667 0,7.284609 5.33993,12.559667 12.20556,12.559667 3.55994,0 6.10277,-1.255958 7.62847,-3.516705 v 3.01432 h 5.33993 z m -19.57975,0 c 0,-4.270285 2.7971,-7.786984 7.37419,-7.786984 4.3228,0 7.37419,3.265511 7.37419,7.786984 0,4.270284 -3.05139,7.786994 -7.37419,7.786994 -4.57709,-0.251187 -7.37419,-3.51671 -7.37419,-7.786994 z m -178.50622,0 V 73.752416 h -5.33994 v 3.014322 c -1.77996,-2.260736 -4.32279,-3.51671 -7.62846,-3.51671 -6.86562,0 -12.20555,5.275059 -12.20555,12.559667 0,7.284609 5.33993,12.559667 12.20555,12.559667 3.55995,0 6.10277,-1.255958 7.62846,-3.516705 v 3.01432 h 5.33994 z m -19.83402,0 c 0,-4.270285 2.7971,-7.786984 7.37418,-7.786984 4.3228,0 7.37418,3.265511 7.37418,7.786984 0,4.270284 -3.05138,7.786994 -7.37418,7.786994 -4.57708,-0.251187 -7.37418,-3.51671 -7.37418,-7.786994 z"
     fill="#000000"
     id="path833"
     inkscape:connector-curvature="0" />
  <rect
     style="stroke-width:0.978231"
     fill="#FF5F00"
     x="95.273178"
     y="20.053465"
     width="68.417549"
     height="120.17376"
     id="rect835" />
  <path
     style="stroke-width:0.978231"
     d="m 99.617135,80.140328 c 0,-24.416931 11.728735,-46.073687 29.756205,-60.086882 C 116.12423,9.8620317 99.399935,3.7047181 81.155255,3.7047181 c -43.222513,0 -78.1914804,34.1837029 -78.1914804,76.4356099 0,42.251902 34.9689674,76.435612 78.1914804,76.435612 18.24468,0 34.968975,-6.15731 48.218085,-16.34873 C 111.34587,126.42633 99.617135,104.55726 99.617135,80.140328 Z"
     fill="#EB001B"
     id="path837"
     inkscape:connector-curvature="0" />
  <path
     style="stroke-width:0.978231"
     d="m 256.0001,80.140328 c 0,42.251902 -34.96896,76.435612 -78.19148,76.435612 -18.24468,0 -34.96897,-6.15731 -48.21807,-16.34873 18.24466,-14.01319 29.7562,-35.66995 29.7562,-60.086882 0,-24.416931 -11.72873,-46.073687 -29.7562,-60.086882 13.2491,-10.1914143 29.97339,-16.3487279 48.21807,-16.3487279 43.22252,0 78.19148,34.3960239 78.19148,76.4356099 z"
     fill="#F79E1B"
     id="path839"
     inkscape:connector-curvature="0" />
</svg>
