<?xml version="1.0" encoding="UTF-8" standalone="no"?>
<svg
   xmlns:dc="http://purl.org/dc/elements/1.1/"
   xmlns:cc="http://creativecommons.org/ns#"
   xmlns:rdf="http://www.w3.org/1999/02/22-rdf-syntax-ns#"
   xmlns:svg="http://www.w3.org/2000/svg"
   xmlns="http://www.w3.org/2000/svg"
   xmlns:sodipodi="http://sodipodi.sourceforge.net/DTD/sodipodi-0.dtd"
   xmlns:inkscape="http://www.inkscape.org/namespaces/inkscape"
   inkscape:version="1.0beta2 (2b71d25, 2019-12-03)"
   inkscape:export-ydpi="300"
   inkscape:export-xdpi="300"
   inkscape:export-filename="/Users/morgan/Documents/CODING/WORKSPACE/JAVA/OC-Java-Project-6-PayMyBuddy/src/main/resources/static/assets/icons/mastercard_simply.png"
   sodipodi:docname="mastercard_simply.svg"
   id="svg843"
   preserveAspectRatio="xMidYMid"
   version="1.1"
   viewBox="0 0 255.74634 158.05783"
   height="158.05783"
   width="255.74634">
  <metadata
     id="metadata849">
    <rdf:RDF>
      <cc:Work
         rdf:about="">
        <dc:format>image/svg+xml</dc:format>
        <dc:type
           rdf:resource="http://purl.org/dc/dcmitype/StillImage" />
        <dc:title></dc:title>
      </cc:Work>
    </rdf:RDF>
  </metadata>
  <defs
     id="defs847" />
  <sodipodi:namedview
     inkscape:current-layer="g841"
     inkscape:window-maximized="0"
     inkscape:window-y="23"
     inkscape:window-x="0"
     inkscape:cy="52.172333"
     inkscape:cx="339.77471"
     inkscape:zoom="0.89618349"
     fit-margin-bottom="0"
     fit-margin-right="0"
     fit-margin-left="0"
     fit-margin-top="0"
     showgrid="false"
     id="namedview845"
     inkscape:window-height="756"
     inkscape:window-width="1253"
     inkscape:pageshadow="2"
     inkscape:pageopacity="0"
     guidetolerance="10"
     gridtolerance="10"
     objecttolerance="10"
     borderopacity="1"
     inkscape:document-rotation="0"
     bordercolor="#666666"
     pagecolor="#ffffff" />
  <g
     transform="translate(-1.7258174e-6,1.9473748e-5)"
     id="g841">
    <rect
       id="rect835"
       height="124.25101"
       width="69.150299"
       y="16.903408"
       x="93.298042"
       fill="#FF5F00" />
    <path
       inkscape:connector-curvature="0"
       id="path837"
       fill="#EB001B"
       d="m 97.688519,79.028893 c 0,-25.245347 11.854341,-47.636872 30.074891,-62.125506 C 114.3724,6.3661985 97.468994,-1.9473748e-5 79.028914,-1.9473748e-5 35.343488,-1.9473748e-5 1.7258174e-6,35.343466 1.7258174e-6,79.028893 1.7258174e-6,122.71432 35.343488,158.05781 79.028914,158.05781 c 18.44008,0 35.343486,-6.36622 48.734496,-16.90341 C 109.54286,126.88529 97.688519,104.27424 97.688519,79.028893 Z" />
    <path
       inkscape:connector-curvature="0"
       id="path839"
       fill="#F79E1B"
       d="m 255.74634,79.028893 c 0,43.685427 -35.34348,79.028917 -79.02891,79.028917 -18.44008,0 -35.34349,-6.36622 -48.73449,-16.90341 18.44007,-14.48863 30.07489,-36.88016 30.07489,-62.125507 0,-25.245347 -11.85434,-47.636872 -30.07489,-62.125506 13.391,-10.5371885 30.29441,-16.903406473748 48.73449,-16.903406473748 43.68543,0 79.02891,35.563010473748 79.02891,79.028912473748 z" />
  </g>
</svg>
