<?xml version="1.0" encoding="UTF-8"?>
<svg width="188.97" height="188.97" version="1.1" viewBox="0 0 188.97 188.97" xml:space="preserve" xmlns="http://www.w3.org/2000/svg" xmlns:cc="http://creativecommons.org/ns#" xmlns:dc="http://purl.org/dc/elements/1.1/" xmlns:rdf="http://www.w3.org/1999/02/22-rdf-syntax-ns#"><metadata><rdf:RDF><cc:Work rdf:about=""><dc:format>image/svg+xml</dc:format><dc:type rdf:resource="http://purl.org/dc/dcmitype/StillImage"/><dc:title/></cc:Work></rdf:RDF></metadata><g transform="matrix(1.3333 0 0 -1.3333 0 188.97)"><g transform="scale(.1)"><path d="m629.35 521.6h-97.328l60.832 373.85h97.336l-60.84-373.85" style="fill:#1c63b7"/><path d="m450.14 895.45-92.793-257.13-10.977 55.371 0.012-0.019-32.758 168.1s-3.953 33.672-46.172 33.672h-153.39l-1.797-6.324s46.922-9.758 101.8-42.746l84.563-324.78h101.41l154.86 373.85h-104.76" style="fill:#1c63b7"/><path d="m1108.6 653.85 51.15 139.91 28.77-139.91zm107.1-132.25h89.37l-77.92 373.85h-78.25c-36.14 0-44.93-27.859-44.93-27.859l-145.15-345.99h101.44l20.3 55.528h123.73l11.41-55.528" style="fill:#1c63b7"/><path d="m966.42 805.55 13.887 80.293s-42.864 16.301-87.539 16.301c-48.301 0-163-21.125-163-123.76 0-96.59 134.62-97.793 134.62-148.5 0-50.715-120.74-41.652-160.59-9.66l-14.485-83.922s43.457-21.125 109.87-21.125c66.41 0 166.62 34.402 166.62 127.99 0 97.195-135.83 106.25-135.83 148.5 0 42.266 94.786 36.84 136.44 13.887" style="fill:#1c63b7"/><path d="m346.38 693.68-32.758 168.1s-3.953 33.672-46.172 33.672h-153.39l-1.797-6.324s73.73-15.285 144.46-72.531c67.594-54.715 89.649-122.92 89.649-122.92" style="fill:#f89c22"/></g></g></svg>
