<?xml version="1.0" encoding="UTF-8" standalone="no"?>
<svg
   xmlns:dc="http://purl.org/dc/elements/1.1/"
   xmlns:cc="http://creativecommons.org/ns#"
   xmlns:rdf="http://www.w3.org/1999/02/22-rdf-syntax-ns#"
   xmlns:svg="http://www.w3.org/2000/svg"
   xmlns="http://www.w3.org/2000/svg"
   xmlns:sodipodi="http://sodipodi.sourceforge.net/DTD/sodipodi-0.dtd"
   xmlns:inkscape="http://www.inkscape.org/namespaces/inkscape"
   inkscape:version="1.0beta2 (2b71d25, 2019-12-03)"
   sodipodi:docname="visa.svg"
   id="svg849"
   xml:space="preserve"
   viewBox="0 0 159.03696 51.59431"
   version="1.1"
   height="51.594311"
   width="159.03696"><defs
     id="defs853" /><sodipodi:namedview
     inkscape:current-layer="svg849"
     inkscape:window-maximized="1"
     inkscape:window-y="23"
     inkscape:window-x="0"
     inkscape:cy="62.164213"
     inkscape:cx="66.417295"
     inkscape:zoom="1.9476706"
     fit-margin-bottom="0"
     fit-margin-right="0"
     fit-margin-left="0"
     fit-margin-top="0"
     showgrid="false"
     id="namedview851"
     inkscape:window-height="956"
     inkscape:window-width="1680"
     inkscape:pageshadow="2"
     inkscape:pageopacity="0"
     guidetolerance="10"
     gridtolerance="10"
     objecttolerance="10"
     borderopacity="1"
     inkscape:document-rotation="0"
     bordercolor="#666666"
     pagecolor="#ffffff" /><metadata
     id="metadata833"><rdf:RDF><cc:Work
         rdf:about=""><dc:format>image/svg+xml</dc:format><dc:type
           rdf:resource="http://purl.org/dc/dcmitype/StillImage" /><dc:title></dc:title></cc:Work></rdf:RDF></metadata><g
     id="g847"
     transform="matrix(1.3117779,0,0,-1.2802274,-13.186111,117.03525)"><g
       id="g845"
       transform="scale(0.1)"><path
         inkscape:connector-curvature="0"
         id="path835"
         style="fill:#1c63b7"
         d="m 629.35,521.6 h -97.328 l 60.832,373.85 H 690.19 L 629.35,521.6" /><path
         inkscape:connector-curvature="0"
         id="path837"
         style="fill:#1c63b7"
         d="m 450.14,895.45 -92.793,-257.13 -10.977,55.371 0.012,-0.019 -32.758,168.1 c 0,0 -3.953,33.672 -46.172,33.672 h -153.39 l -1.797,-6.324 c 0,0 46.922,-9.758 101.8,-42.746 l 84.563,-324.78 h 101.41 l 154.86,373.85 h -104.76" /><path
         inkscape:connector-curvature="0"
         id="path839"
         style="fill:#1c63b7"
         d="m 1108.6,653.85 51.15,139.91 28.77,-139.91 z M 1215.7,521.6 h 89.37 l -77.92,373.85 h -78.25 c -36.14,0 -44.93,-27.859 -44.93,-27.859 L 958.82,521.601 h 101.44 l 20.3,55.528 h 123.73 l 11.41,-55.528" /><path
         inkscape:connector-curvature="0"
         id="path841"
         style="fill:#1c63b7"
         d="m 966.42,805.55 13.887,80.293 c 0,0 -42.864,16.301 -87.539,16.301 -48.301,0 -163,-21.125 -163,-123.76 0,-96.59 134.62,-97.793 134.62,-148.5 0,-50.715 -120.74,-41.652 -160.59,-9.66 l -14.485,-83.922 c 0,0 43.457,-21.125 109.87,-21.125 66.41,0 166.62,34.402 166.62,127.99 0,97.195 -135.83,106.25 -135.83,148.5 0,42.266 94.786,36.84 136.44,13.887" /><path
         inkscape:connector-curvature="0"
         id="path843"
         style="fill:#f89c22"
         d="m 346.38,693.68 -32.758,168.1 c 0,0 -3.953,33.672 -46.172,33.672 H 114.06 l -1.797,-6.324 c 0,0 73.73,-15.285 144.46,-72.531 67.594,-54.715 89.649,-122.92 89.649,-122.92" /></g></g></svg>
